<svg version="1" xmlns="http://www.w3.org/2000/svg" width="666.667" height="666.667" viewBox="0 0 500.000000 500.000000"><path d="M80.3 121.1c-14.2 7-25.7 19.6-32.9 35.6-5.5 12.6-5.6 12.9-6.1 79.8-.6 74.5.1 90.3 4.5 102.3 4.1 11 9.3 19.3 17.2 27.2 7.2 7.4 13.1 11.2 22.7 14.7l6.4 2.3h318l7.2-3.4c18.8-8.7 31-23.1 38.1-44.9l2.5-7.8.6-62.2c.9-85.9.2-95-8.8-113.6-4.2-8.5-14.7-20.4-22.7-25.8-12.6-8.5 3.5-7.7-177.5-8l-161-.3-8.2 4.1zm329 22.1c11.5 5.4 21.8 19 24.6 32.6.7 3.6 1.1 28.3 1.1 76.5l-.1 71.2-3.3 7.9c-5.9 14.1-14.5 22.7-26.6 26.4-5.1 1.6-16.8 1.7-156.6 1.7h-151l-7.6-3.8c-8.3-4.1-14.5-10.1-19.2-18.7-5.6-10.3-5.6-10.5-5.6-85.5 0-42.6.4-71.4 1-75.4.6-3.5 2.5-9.1 4.2-12.4 3.6-7.2 14-18 19.5-20.4 6.4-2.7 28.6-3.1 174.8-2.9l139 .1 5.8 2.7z"/><path d="M235.3 159.4c-38.3 7.3-67.9 35.7-77.5 74.3-3.2 13-3 32.1.6 45.8 1.4 5.4 3.2 10.4 3.8 11.1 1 .9 5.8-.6 21.1-6.6 10.9-4.3 20-8 20.2-8.2.3-.2-.2-2.6-1.1-5.3-.8-2.8-1.7-8.2-2.1-12-.7-8.8 2.2-21.1 6.8-29.3 6.9-12 21.2-22.5 34.6-25.2 12.8-2.7 28.7.2 39.4 7.1 2.8 1.7 5.1 3 5.3 2.8 1.4-1.5 26.6-34.5 26.6-34.9 0-1.1-12.9-9.1-20-12.4-12.3-5.6-21.7-7.7-37-8.2-8.8-.2-16 .1-20.7 1z"/><path d="M234.9 210.3c-6.5 2.7-10.9 5.6-16.1 10.6-4.5 4.2-4.7 5.8-1.1 7.2 1.5.6 4.2 1.7 5.9 2.5 3.1 1.5 3.4 1.4 7.5-1.6 2.4-1.7 6.2-3.9 8.6-5l4.2-1.9-.2-6.8c-.4-8-.8-8.3-8.8-5zM249.7 224.5c-8.1 2.2-15.7 6.7-21.7 12.7-13.5 13.5-16.3 32.7-7.9 53.8 3.9 9.7 3.4 11.7-6.6 23.3-8.1 9.4-9.2 12.7-5.2 14.8 3.9 2.2 13.7 1.5 19.4-1.4 10.5-5.4 15.3-14.6 15.3-29.4 0-9.3 1-12.3 4.1-12.3 7 0 12.4 10.7 14.9 29.3 1.3 9.7 4.1 15.1 9.9 19.1 5.7 4 15.2 6.7 25.8 7.3 13.3.8 13.4-.2.4-12.6-11.3-10.8-12.1-12.7-6.7-16 1.8-1.2 3.9-3.5 4.7-5.2 1.9-4.6 0-7.2-10.6-14.6-9.4-6.7-13.5-10.1-13.5-11.5 0-.4 8.8-.8 19.6-.8h19.6l-.4-12.8c-.3-11.3-.6-13.4-3-18.5-5.4-11.6-18-21.7-31.3-25.2-7.1-1.8-20.2-1.8-26.8 0zm-3.3 40.6c3.1 1.4 4 4.7 2 7.6-1.6 2.5-6.2 3.1-8.2 1.1-2-2-1.4-6.5 1-8.2 2.7-1.9 2.2-1.9 5.2-.5zm54 3.1c.8 1.3.8 2.3 0 3.5-1 1.6-3.3 1.8-21.3 2.1-20.1.2-20.1.2-21-2-.5-1.3-.5-3 .1-4.1.8-1.6 2.6-1.7 21-1.5 17.9.3 20.2.5 21.2 2z"/></svg>